<svg width="199" height="152" viewBox="0 0 199 152" fill="none" xmlns="http://www.w3.org/2000/svg">
<g clip-path="url(#clip0)">
<path d="M20.7852 87.2964C22.8982 87.2822 24.9913 87.7049 26.9325 88.5379C28.7976 89.342 30.4951 90.4878 31.9372 91.916C33.3747 93.35 34.5236 95.0455 35.3218 96.911C36.1663 98.8459 36.595 100.936 36.5802 103.046V123.69H28.0897V103.046C28.0914 102.091 27.9031 101.145 27.5356 100.263C27.1681 99.3803 26.6288 98.5797 25.949 97.9071C25.2826 97.2431 24.4977 96.7094 23.6347 96.3335C21.8144 95.5836 19.7705 95.5836 17.9502 96.3335C17.0872 96.7094 16.3023 97.2431 15.6359 97.9071C14.9672 98.5662 14.4362 99.3514 14.0738 100.217C13.6746 101.126 13.4772 102.111 13.4952 103.104V123.748H5.00465V84.9144H0L3.65947 78.88H13.4952V89.1731C14.6039 88.5837 15.7789 88.1282 16.9956 87.8161C18.2325 87.4877 19.5054 87.3132 20.7852 87.2964Z" fill="white"/>
<path d="M69.1394 87.2386V123.532H60.6489V122.333C59.5095 122.904 58.2732 123.256 57.0039 123.373C55.7744 123.474 54.5594 123.532 53.3444 123.532C51.2706 123.543 49.2185 123.11 47.3273 122.261C43.5744 120.58 40.5728 117.579 38.8946 113.83C38.0438 111.943 37.6097 109.895 37.6217 107.825V87.2386H46.1123V107.825C46.1132 108.746 46.326 109.655 46.7342 110.481C47.5742 112.205 48.9698 113.598 50.6974 114.437C51.5207 114.842 52.4262 115.055 53.3444 115.057C54.2766 115.055 55.1963 114.843 56.0348 114.437C56.9048 114.027 57.6974 113.47 58.378 112.791C59.0579 112.126 59.6116 111.343 60.0125 110.481C60.4252 109.656 60.6429 108.747 60.6489 107.825V87.2386H69.1394Z" fill="white"/>
<path d="M86.8437 87.2964C88.9568 87.2822 91.0498 87.7049 92.9911 88.5379C96.7645 90.145 99.7701 93.1448 101.38 96.911C102.225 98.8459 102.654 100.936 102.639 103.046V123.69H94.1338V103.046C94.1492 102.055 93.9571 101.072 93.5697 100.159C92.8227 98.4175 91.4355 97.0277 89.6932 96.2758C87.8729 95.5258 85.8291 95.5258 84.0087 96.2758C83.1437 96.648 82.3581 97.1822 81.6945 97.8494C81.0257 98.5086 80.4947 99.2936 80.1323 100.159C79.7331 101.069 79.5358 102.054 79.5537 103.046V123.69H71.0632V84.8567H66.0585L69.7035 78.8223H79.5537V89.1154C80.6585 88.5285 81.8285 88.073 83.0396 87.7584C84.2839 87.4496 85.5615 87.2944 86.8437 87.2964Z" fill="white"/>
<path d="M135.198 87.2386V123.532H126.736V122.333C125.591 122.902 124.35 123.254 123.077 123.373C121.862 123.474 120.647 123.532 119.432 123.532C117.358 123.543 115.306 123.11 113.415 122.261C109.662 120.58 106.66 117.579 104.982 113.83C104.131 111.943 103.697 109.895 103.709 107.825V87.2386H112.2V107.825C112.201 108.746 112.413 109.655 112.822 110.481C113.228 111.34 113.781 112.122 114.456 112.791C115.134 113.466 115.921 114.023 116.785 114.437C117.608 114.842 118.514 115.055 119.432 115.057C120.364 115.055 121.284 114.843 122.122 114.437C122.992 114.027 123.785 113.47 124.465 112.791C125.141 112.122 125.694 111.34 126.1 110.481C126.513 109.656 126.73 108.747 126.736 107.825V87.2386H135.198Z" fill="white"/>
<path d="M158.89 87.2964C160.709 87.293 162.514 87.6006 164.228 88.2059C165.886 88.7702 167.395 89.7032 168.639 90.9344L162.535 97.012C162.052 96.4684 161.409 96.0897 160.698 95.9293C160.102 95.8205 159.497 95.7673 158.89 95.7705C157.73 95.759 156.579 95.9799 155.506 96.4201C154.479 96.8184 153.547 97.4284 152.772 98.2103C152.01 98.9875 151.406 99.9041 150.993 100.91C150.552 101.981 150.331 103.13 150.342 104.288V123.69H141.808V93.3741H136.963L140.608 87.2964H150.342V89.7361C150.985 89.3966 151.647 89.093 152.324 88.8267C153.047 88.5379 153.77 88.2781 154.566 88.0471C155.303 87.8268 156.052 87.6437 156.808 87.4985C157.494 87.3685 158.191 87.3009 158.89 87.2964Z" fill="white"/>
<path d="M199.058 105.544V123.633H190.567V120.832C189.141 121.73 187.598 122.429 185.982 122.911C184.33 123.401 182.614 123.644 180.891 123.633C178.454 123.643 176.041 123.151 173.803 122.189C171.647 121.276 169.684 119.963 168.017 118.32C166.352 116.667 165.025 114.706 164.112 112.546C163.167 110.309 162.681 107.906 162.681 105.479C162.681 103.052 163.167 100.649 164.112 98.4124C165.954 94.0329 169.444 90.5495 173.832 88.7112C176.073 87.7682 178.48 87.2825 180.912 87.2825C183.344 87.2825 185.752 87.7682 187.993 88.7112C190.157 89.6227 192.122 90.9467 193.778 92.609C195.425 94.272 196.74 96.2315 197.655 98.3836C198.619 100.612 199.111 103.015 199.101 105.443L199.058 105.544ZM180.891 115.159C182.178 115.166 183.453 114.911 184.637 114.408C186.967 113.424 188.823 111.577 189.815 109.254C190.326 108.064 190.582 106.781 190.567 105.486C190.578 104.183 190.322 102.891 189.815 101.689C188.831 99.3685 186.986 97.5169 184.666 96.5213C182.244 95.5211 179.523 95.5211 177.101 96.5213C174.781 97.5169 172.936 99.3685 171.952 101.689C171.445 102.891 171.189 104.183 171.2 105.486C171.19 106.776 171.446 108.053 171.952 109.24C172.936 111.561 174.781 113.412 177.101 114.408C178.281 114.909 179.551 115.164 180.833 115.159H180.891Z" fill="white"/>
<path d="M8.50503 65.4398H5.32288L4.71538 67.2588H2.77716L6.06056 58.467H7.73842L11.0218 67.2588H9.11253L8.50503 65.4398ZM5.81467 63.9961H8.01324L6.89949 60.7047L5.81467 63.9961Z" fill="white"/>
<path d="M24.951 64.3282C24.9399 64.7525 24.8417 65.1699 24.6626 65.5548C24.4835 65.9396 24.2272 66.2837 23.9095 66.5659C23.204 67.1343 22.3127 67.4222 21.4072 67.3743C20.9073 67.3985 20.4084 67.3098 19.9476 67.1148C19.4867 66.9199 19.076 66.6237 18.7458 66.2483C18.0546 65.3549 17.7104 64.2423 17.7767 63.1156V62.5526C17.7587 61.7828 17.9118 61.0186 18.2251 60.3149C18.4966 59.7185 18.9397 59.216 19.4979 58.8713C20.1731 58.4977 20.9424 58.3274 21.7126 58.3812C22.4827 58.435 23.2208 58.7106 23.8372 59.1745C24.4829 59.7631 24.8679 60.5835 24.9076 61.4554H23.1574C23.1574 61.0012 22.9871 60.5635 22.6801 60.2283C22.3305 59.9447 21.8854 59.8052 21.4361 59.8385C21.1728 59.8222 20.9097 59.8732 20.6717 59.9869C20.4338 60.1006 20.2289 60.2732 20.0765 60.4882C19.7251 61.1012 19.564 61.8047 19.6136 62.5092V63.1733C19.5596 63.8932 19.71 64.6137 20.0476 65.2521C20.1906 65.4774 20.3934 65.6587 20.6334 65.7759C20.8734 65.8931 21.1412 65.9416 21.4072 65.9162C21.8612 65.9518 22.3116 65.8123 22.6656 65.5264C22.9698 65.2068 23.1405 64.7835 23.1429 64.3426L24.951 64.3282Z" fill="white"/>
<path d="M34.6999 58.467L36.9563 64.8479L39.2128 58.467H41.5994V67.2588H39.7769V64.8479L39.9505 60.7047L37.5783 67.2588H36.3344L33.9622 60.7047L34.1358 64.8479V67.2588H32.3278V58.467H34.6999Z" fill="white"/>
<path d="M160.004 63.7074V66.8834H158.196V58.0773H161.639C162.239 58.0666 162.833 58.1951 163.374 58.4526C163.858 58.6646 164.263 59.0231 164.532 59.4776C164.804 59.9359 164.944 60.4605 164.937 60.9934C164.956 61.3776 164.887 61.7612 164.734 62.1143C164.581 62.4673 164.348 62.7804 164.054 63.0289C163.353 63.569 162.479 63.8358 161.595 63.7796L160.004 63.7074ZM160.004 62.2638H161.639C162.034 62.2936 162.426 62.1752 162.738 61.9318C162.866 61.8066 162.966 61.6555 163.031 61.4887C163.096 61.3219 163.124 61.1432 163.114 60.9645C163.114 60.5817 162.962 60.2145 162.69 59.9438C162.419 59.673 162.051 59.5209 161.668 59.5209H160.004V62.2638Z" fill="white"/>
<path d="M181.281 66.8835H175.25V65.6853L178.142 62.6537C178.467 62.3069 178.758 61.9298 179.01 61.5276C179.18 61.2592 179.275 60.9501 179.285 60.6326C179.31 60.2991 179.207 59.9687 178.996 59.7087C178.888 59.5929 178.755 59.5029 178.607 59.4455C178.459 59.388 178.301 59.3644 178.142 59.3766C177.967 59.3664 177.792 59.3977 177.631 59.4679C177.47 59.5382 177.328 59.6454 177.217 59.7808C176.974 60.0828 176.851 60.4627 176.87 60.8491H175.119C175.122 60.3441 175.251 59.8477 175.495 59.4055C175.759 58.9696 176.133 58.6111 176.58 58.3661C177.072 58.1136 177.618 57.9848 178.171 57.9907C178.935 57.9437 179.691 58.1745 180.298 58.6404C180.551 58.8746 180.75 59.1615 180.88 59.4808C181.01 59.8001 181.068 60.144 181.05 60.4882C181.043 60.9524 180.924 61.4079 180.703 61.8163C180.394 62.3929 180.004 62.9228 179.545 63.3899L177.492 65.4399H181.281V66.8835Z" fill="white"/>
<path d="M193.619 63.7075V66.8835H191.826V58.0774H195.254C195.858 58.0671 196.457 58.1955 197.004 58.4527C197.485 58.6687 197.889 59.0263 198.161 59.4777C198.434 59.936 198.574 60.4606 198.566 60.9935C198.586 61.3777 198.517 61.7613 198.364 62.1143C198.211 62.4674 197.978 62.7805 197.684 63.029C196.981 63.5667 196.108 63.8333 195.225 63.7797L193.619 63.7075ZM193.619 62.2639H195.239C195.635 62.2965 196.028 62.1779 196.339 61.9319C196.469 61.8085 196.57 61.6577 196.635 61.4904C196.701 61.3232 196.728 61.1436 196.715 60.9646C196.723 60.7752 196.695 60.5859 196.63 60.4076C196.566 60.2292 196.467 60.0653 196.339 59.9252C196.2 59.7879 196.035 59.68 195.854 59.6081C195.672 59.5361 195.478 59.5016 195.283 59.5066H193.619V62.2639Z" fill="white"/>
<path d="M47.819 147.019C47.7889 147.702 47.6224 148.371 47.3293 148.989C47.0362 149.606 46.6224 150.159 46.1123 150.614C44.9654 151.537 43.5197 152.01 42.0478 151.942C41.2303 151.981 40.4149 151.833 39.6631 151.51C38.9113 151.188 38.2429 150.698 37.7085 150.08C36.5841 148.627 36.0241 146.817 36.1319 144.984V144.118C36.1085 142.863 36.3551 141.617 36.8551 140.465C37.3004 139.477 38.0241 138.639 38.938 138.054C39.8887 137.484 40.982 137.193 42.0912 137.217C43.5467 137.14 44.9775 137.615 46.0978 138.545C47.1482 139.51 47.7768 140.847 47.848 142.27H44.9551C44.9564 141.527 44.6776 140.811 44.174 140.263C43.6041 139.803 42.8803 139.576 42.149 139.628C41.7194 139.602 41.2904 139.687 40.9029 139.874C40.5155 140.061 40.1826 140.344 39.936 140.696C39.3724 141.693 39.1111 142.831 39.1839 143.973V145.056C39.095 146.231 39.3407 147.407 39.8926 148.449C40.1346 148.81 40.4684 149.1 40.8597 149.29C41.2511 149.481 41.686 149.564 42.1201 149.531C42.8562 149.587 43.5859 149.36 44.1596 148.896C44.6558 148.374 44.9305 147.681 44.9262 146.962L47.819 147.019Z" fill="white"/>
<path d="M61.5456 144.955C61.5766 146.231 61.3247 147.498 60.8079 148.665C60.3504 149.683 59.6003 150.542 58.6528 151.134C57.686 151.701 56.5849 152 55.4634 152C54.3419 152 53.2407 151.701 52.274 151.134C51.3309 150.546 50.5776 149.699 50.1044 148.694C49.581 147.548 49.3144 146.301 49.3233 145.042V144.32C49.3014 143.042 49.5632 141.775 50.0899 140.61C50.5472 139.588 51.297 138.724 52.2451 138.127C53.2111 137.553 54.3177 137.258 55.4417 137.275C56.5613 137.256 57.6638 137.551 58.6238 138.127C59.5733 138.727 60.3272 139.589 60.7935 140.61C61.3152 141.776 61.572 143.043 61.5456 144.32V144.955ZM58.5515 144.305C58.634 143.11 58.3516 141.917 57.7415 140.884C57.4715 140.531 57.1236 140.245 56.7247 140.048C56.3258 139.851 55.8867 139.748 55.4417 139.748C54.9966 139.748 54.5576 139.851 54.1587 140.048C53.7598 140.245 53.4118 140.531 53.1419 140.884C52.539 141.909 52.2522 143.089 52.3174 144.277V144.97C52.2492 146.16 52.5308 147.344 53.1274 148.377C53.3763 148.763 53.722 149.079 54.1304 149.292C54.5389 149.504 54.9958 149.607 55.4562 149.589C55.9063 149.611 56.3543 149.514 56.7553 149.309C57.1564 149.104 57.4964 148.797 57.7415 148.42C58.3434 147.395 58.6254 146.213 58.5515 145.027V144.305Z" fill="white"/>
<path d="M75.3735 151.798H72.4806L66.6949 142.371V151.798H63.8021V137.463H66.6949L72.4806 146.918V137.463H75.3735V151.798Z" fill="white"/>
<path d="M83.2566 148.247L86.511 137.463H89.8089L84.7898 151.798H81.7233L76.7476 137.463H80.031L83.2566 148.247Z" fill="white"/>
<path d="M99.8038 145.59H94.1193V149.43H100.787V151.798H91.1541V137.463H100.701V139.859H94.0614V143.28H99.7459L99.8038 145.59Z" fill="white"/>
<path d="M107.47 143.93L110.449 137.463H113.718L109.003 146.601V151.798H105.994V146.601L101.279 137.463H104.534L107.47 143.93Z" fill="white"/>
<path d="M123.106 148.838H117.913L116.93 151.798H113.791L119.128 137.463H121.876L127.243 151.798H124.104L123.106 148.838ZM118.766 146.456H122.354L120.546 141.086L118.766 146.456Z" fill="white"/>
<path d="M140.26 151.798H137.368L131.582 142.371V151.798H128.689V137.463H131.582L137.368 146.918V137.463H140.26V151.798Z" fill="white"/>
<path d="M154.117 147.019C154.095 147.713 153.932 148.395 153.636 149.024C153.339 149.652 152.918 150.213 152.396 150.672C151.25 151.598 149.804 152.07 148.331 152C147.514 152.038 146.699 151.891 145.947 151.568C145.195 151.245 144.527 150.756 143.992 150.138C142.868 148.685 142.308 146.875 142.416 145.042V144.176C142.385 142.92 142.632 141.673 143.139 140.523C143.584 139.535 144.308 138.697 145.222 138.112C146.333 137.488 147.603 137.202 148.875 137.29C150.147 137.377 151.366 137.833 152.381 138.603C153.432 139.567 154.061 140.905 154.132 142.328H151.239C151.24 141.585 150.961 140.868 150.458 140.321C149.888 139.861 149.164 139.634 148.433 139.686C148.003 139.66 147.574 139.745 147.187 139.932C146.799 140.119 146.466 140.402 146.22 140.754C145.656 141.751 145.395 142.889 145.468 144.031V145.114C145.379 146.289 145.624 147.465 146.176 148.506C146.415 148.867 146.746 149.158 147.135 149.349C147.524 149.539 147.957 149.622 148.389 149.589C149.13 149.649 149.866 149.421 150.443 148.954C150.939 148.432 151.214 147.739 151.21 147.019H154.117Z" fill="white"/>
<path d="M164.691 145.59H159.006V149.43H165.674V151.798H156.055V137.463H165.66V139.859H159.006V143.28H164.691V145.59Z" fill="white"/>
<path fill-rule="evenodd" clip-rule="evenodd" d="M55.2826 31.3123H70.3255L149.763 0L129.817 72.4125L86.0048 55.7819L72.77 68.9911L71.9455 50.888H54.5883L55.2392 31.3123H55.2826ZM118.766 35.8742C117.938 35.8714 117.128 36.114 116.439 36.5714C115.749 37.0287 115.211 37.6801 114.893 38.443C114.575 39.206 114.491 40.0461 114.651 40.8567C114.812 41.6674 115.211 42.4121 115.796 42.9964C116.382 43.5808 117.128 43.9784 117.94 44.1389C118.752 44.2994 119.594 44.2156 120.358 43.8981C121.123 43.5805 121.775 43.0435 122.234 42.3552C122.692 41.6669 122.935 40.8583 122.932 40.0319C122.932 38.9292 122.493 37.8717 121.712 37.092C120.931 36.3123 119.871 35.8742 118.766 35.8742ZM89.8378 35.8742C89.0098 35.8714 88.1997 36.114 87.51 36.5714C86.8204 37.0287 86.2824 37.6801 85.9642 38.443C85.646 39.206 85.562 40.0461 85.7228 40.8567C85.8837 41.6674 86.2821 42.4121 86.8676 42.9964C87.453 43.5808 88.1992 43.9784 89.0114 44.1389C89.8237 44.2994 90.6653 44.2156 91.4298 43.8981C92.1942 43.5805 92.8469 43.0435 93.3051 42.3552C93.7633 41.6669 94.0064 40.8583 94.0036 40.0319C93.9998 38.9304 93.5596 37.8751 92.7792 37.0962C91.9988 36.3173 90.9415 35.878 89.8378 35.8742ZM104.302 35.8742C103.475 35.8742 102.666 36.1193 101.978 36.5784C101.291 37.0374 100.755 37.6899 100.439 38.4531C100.123 39.2163 100.041 40.0559 100.203 40.8656C100.366 41.6753 100.765 42.4187 101.351 43.0016C101.938 43.5845 102.684 43.9807 103.496 44.14C104.307 44.2994 105.148 44.2147 105.912 43.8967C106.675 43.5787 107.327 43.0417 107.785 42.3537C108.242 41.6657 108.485 40.8577 108.482 40.0319C108.482 39.4847 108.374 38.9429 108.164 38.4375C107.954 37.9321 107.645 37.4731 107.257 37.0869C106.869 36.7006 106.408 36.3947 105.901 36.1866C105.394 35.9785 104.85 35.8723 104.302 35.8742Z" fill="white"/>
</g>
<defs>
<clipPath id="clip0">
<rect width="199" height="152" fill="white"/>
</clipPath>
</defs>
</svg>
