<svg width="96" height="73" viewBox="0 0 96 73" fill="none" xmlns="http://www.w3.org/2000/svg">
<path fill-rule="evenodd" clip-rule="evenodd" d="M1.2826 31.3123H16.3255L95.7635 0L75.8172 72.4125L32.0048 55.7819L18.77 68.9911L17.9455 50.888H0.588318L1.23921 31.3123H1.2826ZM64.7665 35.8742C63.9385 35.8714 63.1283 36.114 62.4387 36.5714C61.749 37.0287 61.211 37.6801 60.8928 38.443C60.5746 39.206 60.4906 40.0461 60.6515 40.8567C60.8123 41.6674 61.2107 42.4121 61.7962 42.9964C62.3817 43.5808 63.1278 43.9784 63.94 44.1389C64.7523 44.2994 65.594 44.2156 66.3584 43.8981C67.1228 43.5805 67.7755 43.0435 68.2337 42.3552C68.6919 41.6669 68.935 40.8583 68.9322 40.0319C68.9322 38.9292 68.4933 37.8717 67.7121 37.092C66.9308 36.3123 65.8713 35.8742 64.7665 35.8742ZM35.8378 35.8742C35.0098 35.8714 34.1997 36.114 33.51 36.5714C32.8204 37.0287 32.2824 37.6801 31.9642 38.443C31.646 39.206 31.562 40.0461 31.7228 40.8567C31.8837 41.6674 32.2821 42.4121 32.8676 42.9964C33.453 43.5808 34.1992 43.9784 35.0114 44.1389C35.8237 44.2994 36.6653 44.2156 37.4298 43.8981C38.1942 43.5805 38.8469 43.0435 39.3051 42.3552C39.7633 41.6669 40.0064 40.8583 40.0036 40.0319C39.9998 38.9304 39.5596 37.8751 38.7792 37.0962C37.9988 36.3173 36.9415 35.878 35.8378 35.8742ZM50.3021 35.8742C49.4748 35.8742 48.666 36.1193 47.9783 36.5784C47.2905 37.0374 46.7548 37.6899 46.4388 38.4531C46.1228 39.2163 46.0409 40.0559 46.2034 40.8656C46.3658 41.6753 46.7654 42.4187 47.3515 43.0016C47.9375 43.5845 48.6837 43.9807 49.4955 44.14C50.3074 44.2994 51.1483 44.2147 51.9119 43.8967C52.6755 43.5787 53.3273 43.0417 53.7849 42.3537C54.2425 41.6657 54.4852 40.8577 54.4823 40.0319C54.4823 39.4847 54.3741 38.9429 54.1639 38.4375C53.9536 37.9321 53.6455 37.4731 53.2571 37.0869C52.8688 36.7006 52.4078 36.3947 51.9007 36.1866C51.3937 35.9785 50.8504 35.8723 50.3021 35.8742Z" fill="white"/>
</svg>
